<?xml version="1.0" encoding="utf-8"?>
<!-- Generator: Adobe Illustrator 19.0.0, SVG Export Plug-In . SVG Version: 6.00 Build 0)  -->
<svg version="1.1" id="Layer_1" xmlns="http://www.w3.org/2000/svg" xmlns:xlink="http://www.w3.org/1999/xlink" x="0px" y="0px"
	 width="36px" height="36px" viewBox="0 0 36 36" style="enable-background:new 0 0 36 36;" xml:space="preserve">
<style type="text/css">
	.st0{fill:#545454;}
</style>
<g id="XMLID_1_">
	<path id="XMLID_2_" class="st0" d="M28.4,35.5c0,0-4.6,0.5-10.4,0.5S7.6,35.5,7.6,35.5S12.2,35,18,35S28.4,35.5,28.4,35.5z"/>
	<g id="XMLID_24_">
		<path id="XMLID_25_" class="st0" d="M17.9,0h1.5v2v1.9L25,4h5.6v0.7v0.7H25l-5.6,0.1v1.7v1.6l5,0.1h5.1v0.7v0.7h-5.1h-5l-0.1,0.9
			c0,0.6-0.1,1.1-0.2,1.4c-0.1,0.4-0.2,0.6-0.2,0.6c0,0,2.3,0,6.8,0h6.8l-0.1,0.7v0.7H17.8L3.1,14.6v-0.7v-0.7h6.5h6.5v-1.5v-1.5h-5
			H6.2V9.6V8.8h4.9h5V7.1V5.4h-5.5H5.1V4.6V4h5.6h5.5V2.1c0-1.3,0-1.9,0.1-1.9C16.3,0.1,16.9,0,17.9,0z M14,15.6
			c0,0,0.5,0.1,1.4,0.2c0.9,0.1,1.3,0.2,1.3,0.3c0,0-0.1,0.6-0.6,1.7c0,0,1.8,0.1,5.4,0.1c3.6,0,5.4,0,5.4,0.1
			c0,0.1-0.1,0.4-0.4,0.8s-0.7,1-1.2,1.8c-0.5,0.6-1,1.3-1.5,1.9c-0.6,0.6-1.3,1.4-2.1,2.2l-1.3,1.3l0.4,0.2
			c0.2,0.1,0.6,0.4,1.2,0.7c0.6,0.3,1.1,0.5,1.6,0.7c0.5,0.2,1.2,0.4,2,0.6c0.8,0.2,1.6,0.4,2.4,0.5c0.6,0.1,1.6,0.2,2.9,0.4
			c1.3,0.2,2,0.3,2.1,0.3c0.1,0,0.2,0.1,0.2,0.1c0,0-0.1,0.5-0.4,1.2C32.2,31.5,32,31.9,32,32l-1.9-0.3c-1.3-0.2-2.3-0.4-3.2-0.6
			c-1-0.2-1.8-0.5-2.4-0.7c-0.5-0.1-1.2-0.4-1.8-0.7c-0.6-0.2-1.2-0.5-1.7-0.8c-0.5-0.3-1.1-0.7-1.6-1.1l-0.9-0.7l-0.7,0.4
			c-0.4,0.3-1,0.6-1.5,0.9c-0.6,0.3-1.3,0.6-2.1,1c-1,0.4-1.9,0.7-2.8,1c-0.9,0.3-1.8,0.6-2.7,0.9c-0.9,0.3-1.9,0.6-2.9,0.8
			c-1.1,0.3-1.7,0.4-1.8,0.3c0-0.1-0.1-0.2-0.1-0.2c0,0,0.1-0.1,0.3-0.1c0.3-0.1,1-0.4,2.1-0.9c1.2-0.5,2.4-1,3.6-1.6
			c1.1-0.6,2.2-1.2,3.2-1.7c0.8-0.5,1.7-1,2.5-1.5c0.7-0.5,1.1-0.8,1.1-0.8c0-0.1-0.1-0.3-0.5-0.8c-0.4-0.5-0.8-1-1.2-1.4
			c-0.4-0.5-0.7-1-0.9-1.3c-0.2-0.4-0.4-0.6-0.4-0.6c0,0-0.2,0.2-0.6,0.5c-0.4,0.3-0.8,0.7-1.2,1c-0.4,0.3-0.9,0.6-1.4,0.9
			c-0.5,0.2-1,0.5-1.5,0.7c-0.5,0.2-1,0.4-1.4,0.5c-0.5,0.1-0.7,0.2-0.8,0.1V25c0-0.1,0.3-0.3,0.7-0.5c0.3-0.2,0.7-0.5,1.1-0.8
			c0.4-0.3,0.9-0.7,1.2-1.2c0.4-0.4,0.8-0.9,1.2-1.3c0.3-0.3,0.6-0.8,1-1.2c0.2-0.4,0.5-1,0.8-1.5c0.3-0.6,0.6-1.2,0.8-1.8
			c0-0.1,0-0.2,0.1-0.4c0.1-0.2,0.1-0.3,0.2-0.5C13.8,15.6,13.9,15.6,14,15.6z M18.7,19.2h-3.5l-0.6,0.8l-0.5,0.7l1.1,1.1
			c0.8,0.8,1.4,1.4,1.9,1.8l0.8,0.7l0.8-0.7c0.6-0.6,1.1-1.2,1.5-1.7c0.5-0.6,1-1.2,1.3-1.7c0.4-0.5,0.6-0.8,0.6-0.9
			C22.2,19.3,21,19.2,18.7,19.2z"/>
	</g>
</g>
</svg>
