<?xml version="1.0" encoding="utf-8"?>
<!-- Generator: Adobe Illustrator 19.0.0, SVG Export Plug-In . SVG Version: 6.00 Build 0)  -->
<svg version="1.1" id="Layer_1" xmlns="http://www.w3.org/2000/svg" xmlns:xlink="http://www.w3.org/1999/xlink" x="0px" y="0px"
	 width="36px" height="36px" viewBox="-271 378.5 36 36" style="enable-background:new -271 378.5 36 36;" xml:space="preserve">
<style type="text/css">
	.st0{fill:none;stroke:#545454;stroke-width:1.5;stroke-linecap:round;stroke-linejoin:round;stroke-miterlimit:10;}
</style>
<g>
	<g>
		<g>
			<path class="st0" d="M-255.6,379.4h-14c-0.7,0-1.3,0.6-1.3,1.3v30.9c0,0.7,0.6,1.3,1.3,1.3h22.6c0.7,0,1.3-0.6,1.3-1.3v-22.3"/>
			<path class="st0" d="M-255.6,379.4v8.6c0,0.7,0.6,1.3,1.3,1.3h8.6L-255.6,379.4z"/>
		</g>
		<line class="st0" x1="-267" y1="385.6" x2="-259.8" y2="385.6"/>
		<g>
			<line class="st0" x1="-267" y1="393.8" x2="-249.8" y2="393.8"/>
			<line class="st0" x1="-267" y1="398.5" x2="-249.8" y2="398.5"/>
			<line class="st0" x1="-267" y1="403.2" x2="-249.8" y2="403.2"/>
			<line class="st0" x1="-267" y1="407.9" x2="-249.8" y2="407.9"/>
		</g>
	</g>
	<g>
		<g>
			<g>
				<g>
					<g>
						<g>
							<path class="st0" d="M-235,387.2v19.5c0,0.8-0.4,1.6-0.8,2.2l-2.6,4.6l-2.5-4.6c-0.4-0.7-0.6-1.4-0.6-2.2v-19.5
								c0-1.4,1.2-2.5,2.5-2.5l1.7,0C-236,384.7-235,385.8-235,387.2z"/>
						</g>
					</g>
				</g>
			</g>
			<line class="st0" x1="-241.5" y1="390.3" x2="-235" y2="390.3"/>
		</g>
		<line class="st0" x1="-241.5" y1="405.8" x2="-235" y2="405.8"/>
	</g>
</g>
<g>
	<g>
		<g>
			<path class="st0" d="M-255.6,379.4h-14c-0.7,0-1.3,0.6-1.3,1.3v30.9c0,0.7,0.6,1.3,1.3,1.3h22.6c0.7,0,1.3-0.6,1.3-1.3v-22.3"/>
			<path class="st0" d="M-255.6,379.4v8.6c0,0.7,0.6,1.3,1.3,1.3h8.6L-255.6,379.4z"/>
		</g>
		<line class="st0" x1="-267" y1="385.6" x2="-259.8" y2="385.6"/>
		<g>
			<line class="st0" x1="-267" y1="393.8" x2="-249.8" y2="393.8"/>
			<line class="st0" x1="-267" y1="398.5" x2="-249.8" y2="398.5"/>
			<line class="st0" x1="-267" y1="403.2" x2="-249.8" y2="403.2"/>
			<line class="st0" x1="-267" y1="407.9" x2="-249.8" y2="407.9"/>
		</g>
	</g>
	<g>
		<g>
			<g>
				<g>
					<g>
						<g>
							<path class="st0" d="M-235,387.2v19.5c0,0.8-0.4,1.6-0.8,2.2l-2.6,4.6l-2.5-4.6c-0.4-0.7-0.6-1.4-0.6-2.2v-19.5
								c0-1.4,1.2-2.5,2.5-2.5l1.7,0C-236,384.7-235,385.8-235,387.2z"/>
						</g>
					</g>
				</g>
			</g>
			<line class="st0" x1="-241.5" y1="390.3" x2="-235" y2="390.3"/>
		</g>
		<line class="st0" x1="-241.5" y1="405.8" x2="-235" y2="405.8"/>
	</g>
</g>
</svg>
