<?xml version="1.0" encoding="utf-8"?>
<!-- Generator: Adobe Illustrator 19.0.0, SVG Export Plug-In . SVG Version: 6.00 Build 0)  -->
<svg version="1.1" id="Layer_1" xmlns="http://www.w3.org/2000/svg" xmlns:xlink="http://www.w3.org/1999/xlink" x="0px" y="0px"
	 width="36px" height="36px" viewBox="-167 232.5 36 36" style="enable-background:new -167 232.5 36 36;" xml:space="preserve">
<style type="text/css">
	.st0{fill:none;stroke:#545454;stroke-miterlimit:10;}
</style>
<g id="XMLID_1_">
	<path id="XMLID_16_" class="st0" d="M-135.2,261.7c2.2-1.6,3.7-4,3.7-6.6c0-4.8-4.7-8.7-10.4-8.7s-10.4,3.9-10.4,8.7
		c0,4.8,4.7,8.7,10.4,8.7c1.2,0,2.4-0.2,3.6-0.5c0.2-0.1,0.4,0,0.6,0.1l2.3,1.3c0.5,0.3,0.8,0.1,0.6-0.5l-0.5-1.9
		C-135.4,262-135.4,261.8-135.2,261.7z M-145.4,253.6c-0.8,0-1.4-0.6-1.4-1.4c0-0.8,0.6-1.4,1.4-1.4s1.4,0.6,1.4,1.4
		C-144,253-144.6,253.6-145.4,253.6z M-138.5,253.6c-0.8,0-1.4-0.6-1.4-1.4c0-0.8,0.6-1.4,1.4-1.4c0.8,0,1.4,0.6,1.4,1.4
		C-137.1,253-137.7,253.6-138.5,253.6z"/>
	<path id="XMLID_20_" class="st0" d="M-153.9,236.3c-6.9,0-12.6,4.7-12.6,10.4c0,3.2,1.7,6,4.4,7.9c0.3,0.2,0.4,0.5,0.3,0.8
		l-0.6,2.2c-0.2,0.7,0.2,0.9,0.8,0.6l2.7-1.6c0.2-0.1,0.5-0.2,0.8-0.1c1.3,0.4,2.7,0.6,4.2,0.6c0.2,0,0.5,0,0.7,0
		c-0.3-0.8-0.4-1.7-0.4-2.6c0-5.3,5.1-9.5,11.5-9.5c0.2,0,0.4,0,0.7,0C-142.5,240.1-147.7,236.3-153.9,236.3z M-158.2,245
		c-0.9,0-1.7-0.7-1.7-1.7c0-0.9,0.7-1.7,1.7-1.7s1.7,0.7,1.7,1.7C-156.5,244.3-157.2,245-158.2,245z M-149.8,245
		c-0.9,0-1.7-0.7-1.7-1.7c0-0.9,0.7-1.7,1.7-1.7c0.9,0,1.7,0.7,1.7,1.7C-148.1,244.3-148.9,245-149.8,245z"/>
</g>
</svg>
