<?xml version="1.0" encoding="utf-8"?>
<!-- Generator: Adobe Illustrator 19.0.0, SVG Export Plug-In . SVG Version: 6.00 Build 0)  -->
<svg version="1.1" id="Layer_1" xmlns="http://www.w3.org/2000/svg" xmlns:xlink="http://www.w3.org/1999/xlink" x="0px" y="0px"
	 width="36px" height="36px" viewBox="-167 232.5 36 36" style="enable-background:new -167 232.5 36 36;" xml:space="preserve">
<style type="text/css">
	.st0{fill:#545454;}
</style>
<g>
	<g>
		<path class="st0" d="M-149,268.5c-9.9,0-18-8.1-18-18c0-9.9,8.1-18,18-18s18,8.1,18,18C-131,260.4-139.1,268.5-149,268.5z
			 M-149,233.9c-9.2,0-16.6,7.5-16.6,16.6c0,9.2,7.5,16.6,16.6,16.6s16.6-7.5,16.6-16.6C-132.4,241.3-139.8,233.9-149,233.9z"/>
	</g>
	<g>
		<circle class="st0" cx="-148.8" cy="258.7" r="1.2"/>
	</g>
	<g>
		<path class="st0" d="M-148.8,254.2c-0.4,0-0.7-0.3-0.7-0.7c0-1.4,0.9-2.7,2.2-3.3c1.5-0.6,2.4-2.1,2.4-3.7
			c-0.1-2.1-1.8-3.8-3.8-3.9c0,0,0,0,0,0c-1.1,0-2.1,0.4-2.9,1.1c-0.8,0.8-1.2,1.8-1.2,2.8c0,0.4-0.3,0.7-0.7,0.7
			c-0.3,0-0.7-0.3-0.7-0.7c0-1.4,0.6-2.8,1.6-3.8c1-1,2.2-1.5,3.7-1.5c0.1,0,0.1,0,0.2,0c2.7,0.1,5.1,2.4,5.2,5.2
			c0,2.2-1.2,4.1-3.2,5c-0.9,0.3-1.4,1.1-1.4,2C-148.1,253.8-148.4,254.2-148.8,254.2z"/>
	</g>
</g>
</svg>
