<?xml version="1.0" encoding="utf-8"?>
<!-- Generator: Adobe Illustrator 19.0.0, SVG Export Plug-In . SVG Version: 6.00 Build 0)  -->
<svg version="1.1" id="Layer_1" xmlns="http://www.w3.org/2000/svg" xmlns:xlink="http://www.w3.org/1999/xlink" x="0px" y="0px"
	 width="36px" height="36px" viewBox="-167 232.5 36 36" style="enable-background:new -167 232.5 36 36;" xml:space="preserve">
<style type="text/css">
	.st0{fill:#545454;}
</style>
<g>
	<g transform="translate(-182.000000, -234.000000)">
		<path class="st0" d="M20.8,502.5c-1.8,0-3.3-1.5-3.3-3.3v-23.4c0-1.8,1.5-3.3,3.3-3.3h3.5v-1.3c0-1.1,0.9-2,2-2h2.4l0-0.2
			c0.5-1.8,2.4-2.6,4.2-2.6c1.8,0,3.8,0.8,4.2,2.6l0,0.2h2.4c1.1,0,2,0.9,2,2v1.3h3.6c1.8,0,3.3,1.5,3.3,3.3v23.4
			c0,1.8-1.5,3.3-3.3,3.3H20.8z M20.8,473.8c-1.1,0-1.9,0.9-1.9,1.9v23.4c0,1.1,0.9,1.9,1.9,1.9h24.3c1.1,0,1.9-0.9,1.9-1.9v-23.4
			c0-1.1-0.9-1.9-1.9-1.9h-3.6v0.6c0,1.1-0.9,2-2,2H26.3c-1.1,0-2-0.9-2-2v-0.6H20.8z M26.3,470.6c-0.3,0-0.6,0.3-0.6,0.6v3.2
			c0,0.3,0.3,0.6,0.6,0.6h13.3c0.3,0,0.6-0.3,0.6-0.6v-3.2c0-0.3-0.3-0.6-0.6-0.6h-3c-0.4,0-0.7-0.3-0.7-0.7c0-1.5-1.5-2.2-3-2.2
			c-1.4,0-3,0.7-3,2.2c0,0.4-0.3,0.7-0.7,0.7H26.3z M24.5,498.7C24.5,498.7,24.5,498.7,24.5,498.7c-0.2,0-0.2,0-0.3,0c0,0,0,0-0.1,0
			c-0.1,0-0.1-0.1-0.1-0.1l-1.8-1.8c-0.1-0.1-0.2-0.3-0.2-0.5c0-0.2,0.1-0.3,0.2-0.5c0.1-0.1,0.3-0.2,0.5-0.2c0.2,0,0.3,0.1,0.5,0.2
			l1.3,1.3l3-3c0.1-0.1,0.3-0.2,0.5-0.2c0.2,0,0.3,0.1,0.5,0.2c0.1,0.1,0.2,0.3,0.2,0.5c0,0.2-0.1,0.3-0.2,0.5l-3.5,3.5
			C24.9,498.7,24.7,498.7,24.5,498.7z M33,496.4c-0.4,0-0.7-0.3-0.7-0.7s0.3-0.7,0.7-0.7h10.4c0.4,0,0.7,0.3,0.7,0.7
			s-0.3,0.7-0.7,0.7H33z M24.5,491.5C24.5,491.5,24.5,491.5,24.5,491.5c-0.2,0-0.2,0-0.3,0c0,0,0,0-0.1,0l0,0c0,0-0.1,0-0.1-0.1
			l-1.8-1.8c-0.3-0.3-0.3-0.7,0-0.9c0.1-0.1,0.3-0.2,0.5-0.2c0.2,0,0.3,0.1,0.5,0.2l1.3,1.3l3-3c0.1-0.1,0.3-0.2,0.5-0.2
			c0.2,0,0.3,0.1,0.5,0.2c0.1,0.1,0.2,0.3,0.2,0.5c0,0.2-0.1,0.3-0.2,0.5l-3.5,3.5C24.9,491.4,24.7,491.5,24.5,491.5z M33,489.5
			c-0.4,0-0.7-0.3-0.7-0.7c0-0.4,0.3-0.7,0.7-0.7h10.4c0.4,0,0.7,0.3,0.7,0.7c0,0.4-0.3,0.7-0.7,0.7H33z M24.5,484.2
			c-0.1,0-0.2,0-0.3,0c-0.1,0-0.2-0.1-0.2-0.1l-1.8-1.8c-0.3-0.3-0.3-0.7,0-0.9c0.1-0.1,0.3-0.2,0.5-0.2c0.2,0,0.3,0.1,0.5,0.2
			l1.3,1.3l3-3c0.1-0.1,0.3-0.2,0.5-0.2c0.2,0,0.3,0.1,0.5,0.2c0.1,0.1,0.2,0.3,0.2,0.5s-0.1,0.3-0.2,0.5l-3.5,3.5
			C24.9,484.2,24.7,484.2,24.5,484.2z M33,482.5c-0.4,0-0.7-0.3-0.7-0.7s0.3-0.7,0.7-0.7h10.4c0.4,0,0.7,0.3,0.7,0.7
			s-0.3,0.7-0.7,0.7H33z"/>
		<path class="st0" d="M20.8,502.5c-1.8,0-3.2-1.4-3.2-3.2v-23.4c0-1.8,1.4-3.2,3.2-3.2h3.5v-1.3c0-1.1,0.9-1.9,1.9-1.9h2.5l0-0.2
			c0.5-1.8,2.4-2.6,4.2-2.6c1.8,0,3.7,0.8,4.2,2.6l0,0.2h2.4c1.1,0,1.9,0.9,1.9,1.9v1.3h3.7c1.8,0,3.2,1.4,3.2,3.2v23.4
			c0,1.8-1.4,3.2-3.2,3.2H20.8z M20.8,473.8c-1.1,0-2,0.9-2,2v23.4c0,1.1,0.9,2,2,2h24.3c1.1,0,2-0.9,2-2v-23.4c0-1.1-0.9-2-2-2
			h-3.7v0.7c0,1.1-0.9,1.9-1.9,1.9H26.3c-1.1,0-1.9-0.9-1.9-1.9v-0.7H20.8z M26.3,470.6c-0.4,0-0.7,0.3-0.7,0.7v3.2
			c0,0.4,0.3,0.7,0.7,0.7h13.3c0.4,0,0.7-0.3,0.7-0.7v-3.2c0-0.4-0.3-0.7-0.7-0.7h-3c-0.3,0-0.6-0.3-0.6-0.6c0-1.5-1.6-2.2-3-2.2
			c-1.5,0-3,0.7-3,2.2c0,0.3-0.3,0.6-0.6,0.6H26.3z M24.6,498.7C24.5,498.7,24.5,498.7,24.6,498.7c-0.2,0-0.2,0-0.2,0c0,0,0,0-0.1,0
			c-0.1,0-0.1-0.1-0.1-0.1l-1.8-1.8c-0.1-0.1-0.2-0.3-0.2-0.4c0-0.2,0.1-0.3,0.2-0.4c0.1-0.1,0.3-0.2,0.4-0.2c0.2,0,0.3,0.1,0.4,0.2
			l1.3,1.3l3-3c0.1-0.1,0.3-0.2,0.4-0.2s0.3,0.1,0.4,0.2c0.1,0.1,0.2,0.3,0.2,0.4c0,0.2-0.1,0.3-0.2,0.4l-3.5,3.5
			C24.9,498.6,24.7,498.7,24.6,498.7z M33,496.4c-0.3,0-0.6-0.3-0.6-0.6c0-0.3,0.3-0.6,0.6-0.6h10.4c0.3,0,0.6,0.3,0.6,0.6
			c0,0.3-0.3,0.6-0.6,0.6H33z M24.6,491.4C24.5,491.4,24.5,491.4,24.6,491.4c-0.2,0-0.2,0-0.2,0c0,0,0,0-0.1,0l0,0
			c0,0-0.1,0-0.1-0.1l-1.8-1.8c-0.2-0.2-0.2-0.6,0-0.9c0.1-0.1,0.3-0.2,0.4-0.2c0.2,0,0.3,0.1,0.4,0.2l1.3,1.3l3-3
			c0.1-0.1,0.3-0.2,0.4-0.2s0.3,0.1,0.4,0.2c0.2,0.2,0.2,0.6,0,0.9l-3.5,3.5C24.9,491.4,24.7,491.4,24.6,491.4z M33,489.4
			c-0.3,0-0.6-0.3-0.6-0.6s0.3-0.6,0.6-0.6h10.4c0.3,0,0.6,0.3,0.6,0.6s-0.3,0.6-0.6,0.6H33z M24.5,484.2c-0.1,0-0.2,0-0.2,0
			c-0.1,0-0.1-0.1-0.2-0.1l-1.8-1.8c-0.2-0.2-0.2-0.6,0-0.9c0.1-0.1,0.3-0.2,0.4-0.2c0.2,0,0.3,0.1,0.4,0.2l1.3,1.3l3-3
			c0.1-0.1,0.3-0.2,0.4-0.2s0.3,0.1,0.4,0.2c0.1,0.1,0.2,0.3,0.2,0.4s-0.1,0.3-0.2,0.4L25,484C24.9,484.1,24.7,484.2,24.5,484.2z
			 M33,482.5c-0.3,0-0.6-0.3-0.6-0.6s0.3-0.6,0.6-0.6h10.4c0.3,0,0.6,0.3,0.6,0.6s-0.3,0.6-0.6,0.6H33z"/>
	</g>
</g>
</svg>
