<?xml version="1.0" encoding="utf-8"?>
<!-- Generator: Adobe Illustrator 19.0.0, SVG Export Plug-In . SVG Version: 6.00 Build 0)  -->
<svg version="1.1" id="Layer_1" xmlns="http://www.w3.org/2000/svg" xmlns:xlink="http://www.w3.org/1999/xlink" x="0px" y="0px"
	 width="36px" height="36px" viewBox="-167 232.5 36 36" style="enable-background:new -167 232.5 36 36;" xml:space="preserve">
<style type="text/css">
	.st0{fill:#545454;}
</style>
<path class="st0" d="M-142.3,267.2c-0.7,0-1.4-0.3-1.9-0.8l-2-2l-0.1,0.3c-0.2,0.4-0.4,0.8-0.7,1.1c-0.5,0.5-1.2,0.8-1.9,0.8
	c-0.7,0-1.4-0.3-1.9-0.8l-1.1-1.1l-1.8,1.8c-0.5,0.5-1.2,0.8-1.9,0.8c-0.7,0-1.4-0.3-1.9-0.8c-0.3-0.3-0.6-0.7-0.7-1.1l-0.1-0.3
	l-0.2,0.2c-0.5,0.5-1.2,0.8-1.9,0.8c-0.7,0-1.4-0.3-1.9-0.8c-0.5-0.5-0.8-1.2-0.8-1.9c0-0.7,0.3-1.3,0.8-1.9l0.2-0.2l-0.3-0.1
	c-0.4-0.2-0.8-0.4-1.1-0.7c-1.1-1.1-1.1-2.8,0-3.9l2-2l-0.1-0.1c-1.2-2-1.5-4-1.1-6.4l0-0.1l-4-4c-0.1-0.1-0.2-0.3-0.2-0.4
	c0-0.2,0.1-0.3,0.2-0.4l8.8-8.7c0,0,0.1-0.1,0.1-0.1l0,0l0,0c0,0,0.1-0.1,0.1-0.1l0,0c0.1-0.1,0.3-0.2,0.4-0.2
	c0.2,0,0.3,0.1,0.4,0.2l4,4h0.1c1.6,0,2.8,0,3.8,0.2l0,0l0,0c0.9-0.2,1.9-0.2,3-0.2c0.2,0,0.5,0,0.7,0l0.1,0l4-4
	c0.1-0.1,0.3-0.2,0.4-0.2c0.2,0,0.3,0.1,0.4,0.2c0,0,0.1,0.1,0.1,0.1l0,0l0,0c0,0,0.1,0.1,0.1,0.1l0,0l8.7,8.7
	c0.1,0.1,0.2,0.3,0.2,0.4c0,0.1-0.1,0.3-0.2,0.4l-4,4l0,0.1c0.4,2.4,0,4.4-1.1,6.4l-0.1,0.1l2,2c1.1,1.1,1.1,2.8,0,3.9
	c-0.3,0.3-0.7,0.6-1.1,0.7l-0.3,0.1l0.2,0.2c1,1.1,1,2.8,0,3.9c-0.5,0.5-1.2,0.8-1.9,0.8c-0.7,0-1.4-0.3-1.9-0.8l-0.2-0.2l-0.1,0.3
	c-0.2,0.4-0.4,0.8-0.7,1.1C-140.9,266.9-141.6,267.2-142.3,267.2z M-151.8,257.3c0.2,0,0.3,0.1,0.4,0.2l8,8c0.3,0.3,0.7,0.5,1.1,0.5
	c0.4,0,0.8-0.2,1.1-0.5c0.3-0.3,0.5-0.7,0.5-1.1c0-0.4-0.2-0.8-0.5-1.1l-7.5-7.7c-0.1-0.1-0.2-0.3-0.2-0.4s0.1-0.3,0.2-0.4
	c0.1-0.1,0.3-0.2,0.4-0.2s0.3,0.1,0.4,0.2l7.5,7.7l1.8,1.8c0.3,0.3,0.7,0.4,1.1,0.4s0.8-0.2,1.1-0.4c0.3-0.3,0.4-0.7,0.4-1.1
	c0-0.4-0.2-0.8-0.4-1.1l-9.6-9.6c-0.1-0.1-0.2-0.3-0.2-0.4c0-0.2,0.1-0.3,0.2-0.4c0.1-0.1,0.3-0.2,0.4-0.2c0.2,0,0.3,0.1,0.4,0.2
	l7.8,7.8c0.3,0.3,0.7,0.5,1.1,0.5s0.8-0.2,1.1-0.5c0.6-0.6,0.6-1.5,0.1-2.2l-11.4-11.4l-0.1,0.1c-1.6,1-3.2,1.5-4.7,1.5
	c-0.4,0-0.8,0-1.2-0.1l-0.1,0l-3.1,3.1c-0.5,0.5-1.2,0.8-1.9,0.8c-0.7,0-1.4-0.3-1.9-0.8c-0.5-0.5-0.8-1.2-0.8-1.9
	c0-0.7,0.3-1.4,0.8-1.9l4.5-4.6c1.2-1.2,2-1.9,2.9-2.5l0.5-0.3h-1.4l-0.1,0l-0.1,0l0,0c0,0,0,0-0.1,0l0,0l-3.8-3.8l-8.2,8.1l3.9,3.9
	v0l0,0l0,0l0,0v0.2c-0.5,2.5-0.1,4.4,1.2,6.4l0,0v0l0,0c0.5,0.8,1.2,1.6,2,2.4l2.3,2.3l6,6c0.3,0.3,0.7,0.4,1.1,0.4s0.8-0.2,1.1-0.5
	c0.6-0.6,0.6-1.5,0-2.1l-4.4-4.4c-0.2-0.2-0.2-0.6,0-0.9C-152.1,257.4-152,257.3-151.8,257.3z M-156.7,263.4c-0.6,0.6-0.6,1.5,0,2.1
	c0.3,0.3,0.7,0.5,1.1,0.5c0.4,0,0.8-0.2,1.1-0.5l1.8-1.8l-2.1-2.1L-156.7,263.4z M-161.6,262.2c-0.3,0.3-0.4,0.6-0.4,1.1
	s0.1,0.8,0.4,1.1c0.3,0.3,0.7,0.5,1.1,0.5c0.4,0,0.8-0.2,1.1-0.5l3.6-3.6l-2.1-2.1L-161.6,262.2z M-162.8,257.4
	c-0.6,0.6-0.6,1.5,0,2.2c0.3,0.3,0.7,0.5,1.1,0.5c0.4,0,0.8-0.2,1.1-0.5l1.8-1.8l-0.3-0.3c-0.6-0.6-1.1-1.2-1.6-1.8l-0.1-0.2
	L-162.8,257.4z M-137.3,253.7l0.1-0.2c0.9-1.7,1.1-3.4,0.7-5.6l0-0.2l0-0.1c0,0,0,0,0-0.1l0,0l3.9-3.9l-8.2-8.2l-3.8,3.8
	c0,0-0.1,0-0.1,0l0,0l-0.1,0.1h0l0,0h-0.2c-0.4,0-0.7,0-1.1,0c-1.2,0-2.1,0.1-2.9,0.2l-0.1,0c-2.3,0.4-3.5,1.5-5.4,3.5l-4.6,4.6
	c-0.3,0.3-0.4,0.6-0.4,1.1c0,0.4,0.1,0.8,0.4,1.1c0.3,0.3,0.7,0.4,1.1,0.4c0.4,0,0.8-0.2,1.1-0.4l3.5-3.5h0l0,0l0,0l0,0h0.3l0,0
	c0.4,0.1,0.9,0.1,1.3,0.1c1.7,0,3.5-0.7,5.4-2.2c0.1-0.1,0.2-0.1,0.4-0.1c0.2,0,0.4,0.1,0.5,0.2c0.2,0.2,0.2,0.6-0.1,0.8l-0.1,0.1
	h-0.4L-137.3,253.7z"/>
</svg>
