<?xml version="1.0" encoding="utf-8"?>
<!-- Generator: Adobe Illustrator 19.0.0, SVG Export Plug-In . SVG Version: 6.00 Build 0)  -->
<svg version="1.1" id="Layer_1" xmlns="http://www.w3.org/2000/svg" xmlns:xlink="http://www.w3.org/1999/xlink" x="0px" y="0px"
	 width="22px" height="22px" viewBox="-255 459 22 22" style="enable-background:new -255 459 22 22;" xml:space="preserve">
<style type="text/css">
	.st0{fill:#E75063;}
</style>
<path class="st0" d="M-237.6,475c-0.9,0-1.7,0.4-2.2,1l-7.8-4.9c0.1-0.4,0.2-0.7,0.2-1.1c0-0.4-0.1-0.8-0.2-1.1l7.8-4.9
	c0.5,0.6,1.3,1,2.2,1c1.7,0,3-1.3,3-3c0-1.7-1.3-3-3-3c-1.7,0-3,1.3-3,3c0,0.4,0.1,0.8,0.3,1.2l-7.7,4.9c-0.5-0.7-1.4-1.1-2.3-1.1
	c-1.7,0-3,1.3-3,3s1.3,3,3,3c0.9,0,1.7-0.4,2.3-1.1l7.8,4.9c-0.2,0.4-0.3,0.8-0.3,1.2c0,1.7,1.3,3,3,3c1.7,0,3-1.3,3-3
	C-234.6,476.3-236,475-237.6,475z M-237.6,460c1.1,0,2,0.9,2,2c0,1.1-0.9,2-2,2c-1.1,0-2-0.9-2-2C-239.7,460.9-238.7,460-237.6,460z
	 M-250.4,472c-1.1,0-2-0.9-2-2s0.9-2,2-2c1.1,0,2,0.9,2,2S-249.3,472-250.4,472z M-237.6,480c-1.1,0-2-0.9-2-2s0.9-2,2-2
	c1.1,0,2,0.9,2,2S-236.5,480-237.6,480z"/>
</svg>
