<?xml version="1.0" standalone="no"?><!DOCTYPE svg PUBLIC "-//W3C//DTD SVG 1.1//EN" "http://www.w3.org/Graphics/SVG/1.1/DTD/svg11.dtd"><svg t="1547378241662" class="icon" style="" viewBox="0 0 1024 1024" version="1.1" xmlns="http://www.w3.org/2000/svg" p-id="1334" data-spm-anchor-id="a313x.7781069.0.i5" xmlns:xlink="http://www.w3.org/1999/xlink" width="128" height="128"><defs><style type="text/css"></style></defs><path d="M499.014483 162.803002c44.582327 0 87.802877 8.719468 128.461648 25.916767 39.298018 16.621871 74.602855 40.428395 104.931574 70.758138 30.329743 30.329743 54.136268 65.633556 70.758138 104.931574 17.197298 40.658771 25.916767 83.879321 25.916767 128.461648s-8.719468 87.802877-25.916767 128.461648c-16.621871 39.298018-40.428395 74.602855-70.758138 104.931574-30.329743 30.329743-65.633556 54.136268-104.931574 70.758138-40.658771 17.197298-83.879321 25.916767-128.461648 25.916767-44.582327 0-87.802877-8.719468-128.461648-25.916767-39.298018-16.621871-74.602855-40.428395-104.931574-70.758138-30.329743-30.329743-54.136268-65.633556-70.758138-104.931574-17.197298-40.658771-25.916767-83.879321-25.916767-128.461648s8.719468-87.802877 25.916767-128.461648c16.621871-39.298018 40.428395-74.602855 70.758138-104.931574 30.329743-30.329743 65.633556-54.136268 104.931574-70.758138C411.212631 171.52247 454.433181 162.803002 499.014483 162.803002M499.014483 110.559911c-211.144038 0-382.311217 171.166156-382.311217 382.311217s171.166156 382.311217 382.311217 382.311217 382.311217-171.166156 382.311217-382.311217S710.159545 110.559911 499.014483 110.559911L499.014483 110.559911z" p-id="1335" data-spm-anchor-id="a313x.7781069.0.i4" class="" fill="#ffffff"></path><path d="M359.959644 601.112947l66.614445-15.673746c5.204446 45.73523 29.388786 69.246873 72.491588 70.532882 53.541386 1.315702 79.65474-22.837922 78.369755-72.492612-3.917413-39.18539-30.062507-59.419553-78.369755-60.735255l-48.980969 0 0-56.818866 33.307223 0c49.623973 0 75.737328-20.878192 78.368731-62.694985-1.315702-33.950227-20.907885-51.58268-58.776548-52.899406-37.899381 2.632428-60.736279 24.184341-68.573152 64.654715l-66.614445-15.673746c18.276481-70.532882 62.696009-106.441816 133.228891-107.758541 83.573177 1.316726 126.677003 39.18539 129.310454 113.635684 0 39.18539-21.551913 67.287143-64.654715 84.246898 52.22466 20.908909 79.011736 53.573127 80.327438 97.961938-5.233115 78.369755-52.898382 119.513851-143.023447 123.432288C421.981932 709.514493 374.317689 672.962555 359.959644 601.112947z" p-id="1336" data-spm-anchor-id="a313x.7781069.0.i6" class="selected" fill="#707070"></path></svg>